<svg xmlns="http://www.w3.org/2000/svg" aria-hidden="true" style="position:absolute;width:0;height:0;overflow:hidden"><defs><symbol id="icon-arrow-left" viewBox="0 0 32 32"><path fill="none" stroke="#1c2752" stroke-linecap="round" stroke-linejoin="round" stroke-width="4.267" d="M23.063 2.624 9.831 15.856l13.232 13.232" style="stroke:var(--color1, #1c2752)"/></symbol><symbol id="icon-arrow-right" viewBox="0 0 32 32"><path fill="none" stroke="#1c2752" stroke-linecap="round" stroke-linejoin="round" stroke-width="4.923" d="M8.615 29.538 23.384 16 8.615 2.462" style="stroke:var(--color1, #1c2752)"/></symbol><symbol id="icon-check" viewBox="0 0 32 32"><path fill="none" stroke="#1c2752" stroke-linecap="round" stroke-linejoin="round" stroke-width="4.267" d="M29.867 4.267 10.454 27.734l-8.32-8.8" style="stroke:var(--color1, #1c2752)"/></symbol><symbol id="icon-client-1" viewBox="0 0 32 32"><path fill="#1c2752" d="M12.035 18.919v-5.64h2.6c.619 0 1.096.131 1.432.392s.504.619.504 1.072c0 .336-.101.621-.304.856-.197.235-.469.392-.816.472v-.128c.405.069.717.224.936.464.224.235.336.541.336.92 0 .501-.179.893-.536 1.176-.352.277-.84.416-1.464.416h-2.688zm1.192-.928h1.344c.309 0 .547-.059.712-.176s.248-.304.248-.56c0-.261-.083-.448-.248-.56-.165-.117-.403-.176-.712-.176h-1.344v1.472zm0-2.392h1.184c.325 0 .565-.059.72-.176s.232-.293.232-.528c0-.229-.077-.403-.232-.52s-.395-.176-.72-.176h-1.184v1.4zm4.291 3.32v-2.984c0-.176-.005-.355-.016-.536a5.9 5.9 0 0 0-.04-.536h1.16l.136 1.184h-.184c.053-.288.139-.525.256-.712a1.19 1.19 0 0 1 .448-.416c.181-.091.387-.136.616-.136.101 0 .181.005.24.016a.699.699 0 0 1 .176.04l-.008 1.064a1.42 1.42 0 0 0-.576-.112c-.224 0-.411.043-.56.128a.813.813 0 0 0-.328.376 1.554 1.554 0 0 0-.104.6v2.024h-1.216zm3.297 0v-4.056h1.208v4.056h-1.208zm-.048-4.72v-1.128h1.296v1.128h-1.296zm3.835 4.808c-.352 0-.664-.085-.936-.256a1.763 1.763 0 0 1-.632-.728c-.149-.315-.224-.693-.224-1.136 0-.437.075-.813.224-1.128s.36-.555.632-.72c.272-.171.584-.256.936-.256.32 0 .605.077.856.232.256.149.427.352.512.608h-.104v-2.592h1.208v5.888h-1.192v-.792h.104c-.085.267-.256.48-.512.64s-.547.24-.872.24zm.36-.912c.277 0 .501-.099.672-.296s.256-.501.256-.912c0-.411-.085-.712-.256-.904s-.395-.288-.672-.288a.881.881 0 0 0-.68.288c-.171.192-.256.493-.256.904s.085.715.256.912a.871.871 0 0 0 .68.296zm5.143.912c-.704 0-1.253-.189-1.648-.568s-.592-.893-.592-1.544c0-.421.083-.789.248-1.104.171-.315.405-.56.704-.736a2.041 2.041 0 0 1 1.064-.272c.4 0 .733.085 1 .256.272.171.475.411.608.72.139.304.208.659.208 1.064v.28h-2.84v-.6h1.96l-.136.112c0-.336-.069-.589-.208-.76-.133-.176-.328-.264-.584-.264-.283 0-.501.104-.656.312-.149.208-.224.507-.224.896v.128c0 .395.096.688.288.88.197.192.48.288.848.288.219 0 .424-.027.616-.08.197-.059.384-.149.56-.272l.336.8a2.287 2.287 0 0 1-.704.344c-.261.08-.544.12-.848.12z" opacity=".4" style="fill:var(--color1, #1c2752)"/><path d="M9.946 11.135H0v9.946h9.946v-9.946z" opacity=".2" style="fill:var(--color2, #000)"/></symbol><symbol id="icon-client-2" viewBox="0 0 32 32"><path fill="#1c2752" d="M9.441 14.486c.101.004.235.007.403.011a21.173 21.173 0 0 0 1.03 0c.172-.004.293-.006.364-.006.485 0 .847.082 1.086.246.242.164.364.375.364.632a.76.76 0 0 1-.129.403 1.189 1.189 0 0 1-.397.364 1.86 1.86 0 0 1-.677.218v.011c.366.022.657.086.873.19.22.101.379.222.476.364s.146.289.146.442a.923.923 0 0 1-.196.604c-.127.16-.311.282-.554.364a2.794 2.794 0 0 1-.862.117c-.09 0-.22-.002-.392-.006a21.663 21.663 0 0 0-1.131-.005c-.168 0-.302.004-.403.011v-.112a.851.851 0 0 0 .257-.045.184.184 0 0 0 .117-.134c.022-.067.034-.168.034-.302v-2.775a.96.96 0 0 0-.034-.302.188.188 0 0 0-.117-.134.701.701 0 0 0-.257-.045v-.112zm1.746.112c-.134 0-.222.032-.263.095s-.062.192-.062.386v2.775c0 .131.009.229.028.297.022.067.06.112.112.134s.131.034.235.034c.239 0 .412-.084.52-.252.112-.172.168-.414.168-.727 0-.287-.071-.509-.213-.666-.138-.157-.369-.235-.694-.235h-.442v-.095h.481c.16 0 .284-.041.369-.123a.69.69 0 0 0 .179-.336c.034-.142.05-.293.05-.453 0-.276-.037-.483-.112-.621-.071-.142-.19-.213-.358-.213zm4.927.89v2.35c0 .168.024.293.073.375.052.078.14.117.263.117v.117a3.664 3.664 0 0 0-.347-.017c-.172 0-.332.006-.481.017a2.763 2.763 0 0 0-.414.062v-.453a.816.816 0 0 1-.369.364 1.235 1.235 0 0 1-.526.106c-.164 0-.297-.02-.397-.062a.544.544 0 0 1-.224-.162.599.599 0 0 1-.129-.269 2.139 2.139 0 0 1-.039-.453v-1.421c0-.168-.024-.291-.073-.369-.049-.082-.136-.123-.263-.123v-.117c.119.011.235.017.347.017a3.86 3.86 0 0 0 .895-.079v2.361c0 .086.009.159.028.218s.05.106.095.14c.045.034.104.05.179.05.086 0 .164-.022.235-.067s.129-.106.173-.185a.559.559 0 0 0 .067-.274v-1.572c0-.168-.024-.291-.073-.369-.049-.082-.136-.123-.263-.123v-.117c.119.011.235.017.347.017a3.86 3.86 0 0 0 .895-.079zm1.322-1.399c.175 0 .312.039.409.117.101.078.151.192.151.341s-.05.263-.151.341c-.097.078-.233.117-.409.117s-.313-.039-.414-.117c-.097-.078-.145-.192-.145-.341s.049-.263.145-.341c.101-.078.239-.117.414-.117zm.492 1.399v2.44c0 .157.024.263.073.319.052.056.14.084.263.084v.117c-.075-.004-.185-.007-.33-.011a9.182 9.182 0 0 0-.901 0c-.153.004-.269.007-.347.011v-.117c.123 0 .209-.028.257-.084.052-.056.078-.162.078-.319V16.16c0-.168-.024-.291-.073-.369-.049-.082-.136-.123-.263-.123v-.117c.119.011.235.017.347.017.168 0 .326-.006.476-.017a3.83 3.83 0 0 0 .42-.062zm1.787-1.416v3.855c0 .157.024.263.073.319.052.056.14.084.263.084v.117a13.479 13.479 0 0 0-.325-.011 9.305 9.305 0 0 0-.907 0c-.153.004-.269.007-.347.011v-.117c.123 0 .209-.028.257-.084.052-.056.078-.162.078-.319v-3.189c0-.164-.024-.285-.073-.364-.045-.082-.132-.123-.263-.123v-.117c.119.011.235.017.347.017a3.86 3.86 0 0 0 .895-.079zm3.332 0v3.76c0 .168.024.293.073.375.052.078.14.117.263.117v.117a3.664 3.664 0 0 0-.347-.017c-.168 0-.326.006-.476.017s-.289.032-.42.062v-3.76c0-.168-.024-.291-.073-.369-.045-.082-.133-.123-.263-.123v-.117c.119.011.235.017.347.017a3.86 3.86 0 0 0 .895-.079zm-1.505 1.399c.164 0 .306.024.425.073a.645.645 0 0 1 .297.229l-.067.056a.443.443 0 0 0-.179-.14.515.515 0 0 0-.213-.045c-.179 0-.319.112-.42.336-.097.22-.145.56-.145 1.018 0 .321.019.574.056.761.041.183.095.311.162.386a.318.318 0 0 0 .235.112.432.432 0 0 0 .308-.129.484.484 0 0 0 .145-.353l.017.235a.833.833 0 0 1-.28.386.732.732 0 0 1-.448.129c-.216 0-.412-.054-.588-.162a1.09 1.09 0 0 1-.408-.498c-.097-.228-.145-.522-.145-.884 0-.339.052-.619.157-.839.108-.224.255-.392.442-.504.19-.112.407-.168.649-.168zm2.812-1.382c.175 0 .311.039.408.117.101.078.151.192.151.341s-.05.263-.151.341c-.097.078-.233.117-.408.117s-.313-.039-.414-.117c-.097-.078-.145-.192-.145-.341s.048-.263.145-.341c.101-.078.239-.117.414-.117zm.492 1.399v2.44c0 .157.024.263.073.319.052.056.14.084.263.084v.117c-.075-.004-.185-.007-.33-.011a9.182 9.182 0 0 0-.901 0c-.153.004-.269.007-.347.011v-.117c.123 0 .209-.028.257-.084.052-.056.078-.162.078-.319V16.16c0-.168-.024-.291-.073-.369-.048-.082-.136-.123-.263-.123v-.117c.119.011.235.017.347.017.168 0 .326-.006.476-.017a3.83 3.83 0 0 0 .42-.062zm2.71-.017c.164 0 .295.021.392.062a.556.556 0 0 1 .229.157c.06.071.102.162.129.274.03.112.045.263.045.453v1.511c0 .157.024.263.073.319.052.056.14.084.263.084v.117c-.075-.004-.187-.007-.336-.011a8.838 8.838 0 0 0-.867 0c-.142.004-.248.007-.319.011v-.117c.104 0 .177-.028.218-.084s.062-.162.062-.319v-1.779a.722.722 0 0 0-.028-.218.245.245 0 0 0-.095-.14.309.309 0 0 0-.19-.05.46.46 0 0 0-.414.257.57.57 0 0 0-.062.269v1.662c0 .157.02.263.062.319s.114.084.218.084v.117c-.071-.004-.173-.007-.308-.011a7.816 7.816 0 0 0-.867 0c-.153.004-.269.007-.347.011v-.117c.123 0 .209-.028.257-.084.052-.056.078-.162.078-.319v-1.768c0-.168-.024-.291-.073-.369-.049-.082-.136-.123-.263-.123v-.117c.119.011.235.017.347.017.168 0 .326-.006.476-.017a3.83 3.83 0 0 0 .42-.062v.453a.782.782 0 0 1 .364-.364 1.29 1.29 0 0 1 .537-.106zm2.385 4.029c-.243 0-.455-.02-.638-.062a1.016 1.016 0 0 1-.425-.173c-.101-.075-.151-.166-.151-.274 0-.112.052-.215.157-.308.104-.09.265-.16.481-.213l.05.09a.618.618 0 0 0-.134.185.484.484 0 0 0-.039.185c0 .153.069.27.207.353s.328.123.571.123c.168 0 .313-.024.436-.073.123-.045.218-.11.285-.196s.101-.187.101-.302c0-.108-.041-.2-.123-.274-.078-.075-.239-.112-.481-.112h-.325c-.161 0-.299-.02-.414-.062s-.205-.099-.269-.173a.433.433 0 0 1-.09-.28c0-.168.065-.31.196-.425.13-.119.311-.229.543-.33l.05.045c-.056.034-.11.073-.162.117a.23.23 0 0 0-.073.179c0 .119.071.179.213.179h.576c.224 0 .421.026.593.078a.795.795 0 0 1 .403.246.634.634 0 0 1 .151.442c0 .187-.06.358-.179.515s-.304.282-.554.375c-.246.097-.565.145-.957.145zm.073-2.244c-.224 0-.424-.032-.599-.095a.88.88 0 0 1-.408-.291c-.101-.134-.151-.304-.151-.509s.05-.373.151-.504a.89.89 0 0 1 .408-.291c.175-.063.375-.095.599-.095.22 0 .418.032.593.095s.313.16.414.291.151.298.151.504c0 .205-.05.375-.151.509-.101.131-.239.228-.414.291s-.373.095-.593.095zm0-.101c.082 0 .147-.058.196-.173.052-.116.078-.323.078-.621s-.026-.504-.078-.616c-.049-.116-.114-.173-.196-.173-.086 0-.153.058-.201.173-.049.112-.073.317-.073.616s.024.505.073.621c.048.116.116.173.201.173zm.89-1.197-.117-.039a.831.831 0 0 1 .274-.369.668.668 0 0 1 .414-.146c.123 0 .214.034.274.101.063.067.095.155.095.263s-.03.192-.09.252a.274.274 0 0 1-.201.084.289.289 0 0 1-.185-.067.298.298 0 0 1-.095-.213c-.008-.097.026-.218.101-.364l.034.034a.894.894 0 0 0-.319.179.919.919 0 0 0-.185.285z" opacity=".4" style="fill:var(--color1, #1c2752)"/><path d="M0 11.454v9.093h9.093v-9.093H0z" opacity=".2" style="fill:var(--color2, #000)"/></symbol><symbol id="icon-client-3" viewBox="0 0 32 32"><path fill="#1c2752" d="M12.744 15.084v-1.413h-.366c-.151 0-.282.013-.391.038a.521.521 0 0 0-.425.37c-.034.104-.05.234-.05.391v3.761c0 .118.011.227.034.328a.834.834 0 0 0 .114.261.57.57 0 0 0 .202.172.671.671 0 0 0 .303.063c.194 0 .338-.056.433-.168.098-.112.147-.273.147-.484v-.761h.316v.766c0 .289-.074.516-.223.681s-.37.248-.665.248c-.177 0-.328-.029-.454-.088a.85.85 0 0 1-.303-.236 1.022 1.022 0 0 1-.168-.353 1.751 1.751 0 0 1-.05-.429v-3.618c0-.093.001-.187.004-.282a1.51 1.51 0 0 1 .034-.282c.022-.093.055-.178.097-.257a.671.671 0 0 1 .185-.21.948.948 0 0 1 .307-.139c.126-.036.279-.055.459-.055h.778v1.695h-.316zm2.217 3.403c0 .123-.015.237-.046.341s-.077.194-.139.269a.633.633 0 0 1-.231.177c-.09.042-.195.063-.316.063s-.227-.02-.32-.059a.607.607 0 0 1-.227-.156.734.734 0 0 1-.135-.244 1 1 0 0 1-.046-.311v-2.915c0-.109.015-.21.046-.303a.652.652 0 0 1 .366-.404.819.819 0 0 1 .32-.059h.728v3.601zm-1.145.105c0 .129.035.238.105.328.073.09.177.135.311.135.132 0 .233-.05.303-.151a.635.635 0 0 0 .109-.374v-3.361h-.412a.377.377 0 0 0-.311.135.517.517 0 0 0-.105.328v2.962zm3.172.661h-.316v-3.538a.503.503 0 0 0-.109-.328.36.36 0 0 0-.303-.135h-.416v4.001h-.316v-4.282h.732a.77.77 0 0 1 .311.059c.093.036.17.09.231.16a.652.652 0 0 1 .139.244.953.953 0 0 1 .046.303v3.517zm.442-.972h.315v.316c0 .129.035.238.105.328.073.087.177.13.311.13.132 0 .233-.043.303-.13a.503.503 0 0 0 .109-.328v-.53a.695.695 0 0 0-.046-.257.934.934 0 0 0-.118-.231 1.419 1.419 0 0 0-.168-.215 17.466 17.466 0 0 0-.42-.442 2.119 2.119 0 0 1-.198-.257 1.447 1.447 0 0 1-.143-.29 1.02 1.02 0 0 1-.05-.328v-.391a.96.96 0 0 1 .046-.307.652.652 0 0 1 .366-.404.816.816 0 0 1 .32-.059.77.77 0 0 1 .311.059c.093.036.17.09.231.16a.652.652 0 0 1 .139.244.965.965 0 0 1 .046.307v.345h-.315v-.37a.509.509 0 0 0-.109-.328.36.36 0 0 0-.303-.135.377.377 0 0 0-.311.135.517.517 0 0 0-.105.328v.416c0 .095.015.185.046.269.031.081.07.158.118.231.05.073.107.144.168.215l.194.202c.079.081.154.163.227.244.076.081.142.167.198.257.059.09.105.185.139.286a.908.908 0 0 1 .055.316v.501a.987.987 0 0 1-.046.307.693.693 0 0 1-.139.244.664.664 0 0 1-.231.16.774.774 0 0 1-.311.059.819.819 0 0 1-.32-.059.656.656 0 0 1-.227-.16.693.693 0 0 1-.139-.244.987.987 0 0 1-.046-.307v-.286zm1.981-3.029h-.349v-.282h.349v-.53h.315v.53h.576v.282h-.576v3.34c0 .129.035.238.105.328.07.087.172.13.307.13h.139v.286h-.139a.819.819 0 0 1-.32-.059.666.666 0 0 1-.227-.16.734.734 0 0 1-.135-.244.987.987 0 0 1-.046-.307v-3.315zm2.133-.025a.599.599 0 0 0-.151-.017.377.377 0 0 0-.311.135.517.517 0 0 0-.105.328v3.58h-.315v-3.555a.96.96 0 0 1 .046-.307.652.652 0 0 1 .366-.404.816.816 0 0 1 .32-.059c.05 0 .1.004.147.013a.606.606 0 0 1 .13.029l-.126.257zm1.83-.257v3.517c0 .123-.015.237-.046.341s-.077.194-.139.269-.139.135-.231.177c-.09.042-.195.063-.315.063s-.227-.02-.32-.059a.607.607 0 0 1-.227-.156.734.734 0 0 1-.135-.244 1 1 0 0 1-.046-.311V14.97h.315v3.622c0 .129.035.238.105.328.073.09.177.135.311.135.132 0 .233-.05.303-.151a.635.635 0 0 0 .11-.374v-3.559h.315zm.841 3.61c0 .129.036.238.109.328s.177.135.311.135c.132 0 .233-.05.303-.151a.635.635 0 0 0 .109-.374l.311-.042c0 .123-.015.237-.046.341s-.077.194-.139.269-.139.135-.231.177c-.09.042-.195.063-.315.063s-.227-.02-.32-.059a.607.607 0 0 1-.227-.156.715.715 0 0 1-.134-.244 1 1 0 0 1-.046-.311v-2.819c0-.109.015-.21.046-.303a.652.652 0 0 1 .366-.404.819.819 0 0 1 .32-.059h.728v1.195h-.316v-.913h-.412a.377.377 0 0 0-.311.135.517.517 0 0 0-.105.328v2.865zm1.666-3.328h-.349v-.282h.349v-.53h.315v.53h.576v.282h-.576v3.34c0 .129.035.238.105.328.07.087.172.13.307.13h.139v.286h-.139a.819.819 0 0 1-.32-.059.656.656 0 0 1-.227-.16.734.734 0 0 1-.135-.244.987.987 0 0 1-.046-.307v-3.315zm1.292 4.001v-4.282h.315v4.282h-.315zm-.042-5.734c0-.14.067-.21.202-.21.065 0 .115.018.151.055.039.034.059.086.059.156 0 .053-.018.1-.055.139-.034.039-.085.059-.156.059a.195.195 0 0 1-.151-.059.205.205 0 0 1-.05-.139zm2.419 4.968c0 .123-.015.237-.046.341s-.077.194-.139.269-.139.135-.231.177c-.09.042-.195.063-.315.063s-.227-.02-.32-.059a.599.599 0 0 1-.227-.156.734.734 0 0 1-.135-.244 1 1 0 0 1-.046-.311v-2.915c0-.109.015-.21.046-.303a.652.652 0 0 1 .366-.404.819.819 0 0 1 .32-.059h.728v3.601zm-1.145.105c0 .129.035.238.105.328.073.09.177.135.311.135.132 0 .233-.05.303-.151a.635.635 0 0 0 .11-.374v-3.361h-.412a.377.377 0 0 0-.311.135.517.517 0 0 0-.105.328v2.962zm3.172.661h-.315v-3.538a.509.509 0 0 0-.109-.328.36.36 0 0 0-.303-.135h-.417v4.001h-.315v-4.282h.732a.77.77 0 0 1 .311.059c.092.036.17.09.231.16a.652.652 0 0 1 .139.244.953.953 0 0 1 .046.303v3.517z" opacity=".4" style="fill:var(--color1, #1c2752)"/><path d="M9.846 10.813H0v9.846h9.846v-9.846z" opacity=".2" style="fill:var(--color2, #000)"/></symbol><symbol id="icon-client-4" viewBox="0 0 32 32"><path fill="#1c2752" d="M11.667 17.52a2.149 2.149 0 0 1-.672.289c-.153.04-.32.058-.502.055-.309-.004-.586-.058-.83-.164s-.453-.249-.628-.431a1.98 1.98 0 0 1-.393-.633 2.138 2.138 0 0 1-.136-.764c0-.298.047-.571.142-.819.098-.251.235-.468.409-.65.175-.186.38-.329.617-.431.24-.102.502-.153.786-.153.24 0 .459.033.655.098s.362.14.497.224l-.229.535a2.16 2.16 0 0 0-.393-.207 1.282 1.282 0 0 0-.513-.098 1.28 1.28 0 0 0-.688.197 1.495 1.495 0 0 0-.502.53 1.507 1.507 0 0 0-.186.748c0 .28.056.531.169.753.116.222.28.397.491.524s.459.191.743.191a1.451 1.451 0 0 0 .917-.306l.246.513zm2.11.354a1.14 1.14 0 0 1-.486-.109.905.905 0 0 1-.36-.311l.033-.169v1.632h-.551v-3.418h.475l.076.562-.055-.158c.109-.135.246-.244.409-.328a1.2 1.2 0 0 1 .562-.131 1.078 1.078 0 0 1 .983.584c.098.182.147.397.147.644s-.055.462-.164.644a1.092 1.092 0 0 1-.437.415 1.372 1.372 0 0 1-.633.142zm-.109-.436a.785.785 0 0 0 .672-.366.722.722 0 0 0 .109-.393c0-.149-.033-.282-.098-.399s-.155-.207-.268-.273a.731.731 0 0 0-.377-.098.758.758 0 0 0-.48.153.773.773 0 0 0-.262.404v.409c.029.164.109.298.24.404s.286.158.464.158zm2.504-1.9.049.497-.027-.044a.95.95 0 0 1 .355-.399.988.988 0 0 1 .535-.147c.189 0 .348.044.475.131s.206.211.235.371l-.027.022a.997.997 0 0 1 .366-.382.896.896 0 0 1 .48-.142c.226 0 .404.064.535.191a.664.664 0 0 1 .202.491v1.692h-.546v-1.485a.544.544 0 0 0-.082-.289c-.047-.076-.135-.118-.262-.126a.55.55 0 0 0-.349.12.851.851 0 0 0-.235.311 1.077 1.077 0 0 0-.087.409v1.059h-.551v-1.485a.52.52 0 0 0-.087-.289c-.051-.076-.14-.118-.268-.126a.544.544 0 0 0-.344.12.79.79 0 0 0-.229.317 1.02 1.02 0 0 0-.082.409v1.054h-.551v-2.282h.497zm5.405 2.336a1.14 1.14 0 0 1-.486-.109.905.905 0 0 1-.36-.311l.033-.169v1.632h-.551v-3.418h.475l.076.562-.055-.158c.109-.135.246-.244.409-.328a1.2 1.2 0 0 1 .562-.131 1.078 1.078 0 0 1 .983.584c.098.182.147.397.147.644s-.055.462-.164.644a1.092 1.092 0 0 1-.437.415 1.372 1.372 0 0 1-.633.142zm-.109-.436a.785.785 0 0 0 .672-.366.722.722 0 0 0 .109-.393c0-.149-.033-.282-.098-.399s-.155-.207-.268-.273a.731.731 0 0 0-.377-.098.758.758 0 0 0-.48.153.773.773 0 0 0-.262.404v.409c.029.164.109.298.24.404s.286.158.464.158zm2.963.436c-.215 0-.409-.046-.584-.137s-.313-.224-.415-.399a1.314 1.314 0 0 1-.153-.661c0-.255.053-.473.158-.655a1.145 1.145 0 0 1 1.005-.579c.218 0 .399.046.541.136s.251.2.328.328l-.033.087.055-.459h.508v2.282h-.551v-.579l.055.137c-.015.029-.046.071-.093.126s-.109.111-.186.169a1.147 1.147 0 0 1-.278.142.998.998 0 0 1-.355.06zm.147-.453a.732.732 0 0 0 .459-.142.688.688 0 0 0 .251-.399v-.47a.693.693 0 0 0-.268-.371.745.745 0 0 0-.459-.147.69.69 0 0 0-.36.098.683.683 0 0 0-.262.268.764.764 0 0 0-.098.393.79.79 0 0 0 .098.393c.069.116.16.209.273.278a.712.712 0 0 0 .366.098zm2.62-1.883.049.53-.022-.076a.866.866 0 0 1 .349-.393c.164-.098.355-.147.573-.147.215 0 .391.064.53.191a.647.647 0 0 1 .213.491v1.687h-.551v-1.496a.43.43 0 0 0-.104-.284c-.066-.076-.167-.116-.306-.12a.605.605 0 0 0-.486.24c-.127.16-.191.366-.191.617v1.043h-.551v-2.282h.497zm2.675 3.379 1.501-3.38h.508l-1.474 3.38h-.535zm.567-1.081-1.097-2.299h.617l.912 2.02-.431.278z" opacity=".4" style="fill:var(--color1, #1c2752)"/><path d="M7.583 12.664H0v7.583h7.583v-7.583z" opacity=".2" style="fill:var(--color2, #000)"/></symbol><symbol id="icon-clock" viewBox="0 0 32 32"><path fill="#1c2752" d="M16 0C7.164 0 0 7.164 0 16s7.164 16 16 16 16-7.164 16-16S24.836 0 16 0zm7.385 18.462H16a1.23 1.23 0 0 1-1.23-1.231V6.154a1.228 1.228 0 0 1 2.1-.87c.231.23.36.544.36.87V16h6.154a1.232 1.232 0 0 1 1.231 1.23 1.23 1.23 0 0 1-1.231 1.231z" style="fill:var(--color1, #1c2752)"/></symbol><symbol id="icon-dots" viewBox="0 0 32 32"><path fill="#1c2752" d="M26.474 5.948c-1.537.651-2.878 1.641-4.023 2.969s-1.836 2.682-2.07 4.063c-.13.729-.195 1.354-.195 1.875 0 .599.065 1.094.195 1.484 1.224-1.276 2.773-1.914 4.648-1.914s3.398.547 4.57 1.641 1.758 2.604 1.758 4.531c0 1.823-.625 3.307-1.875 4.453-1.224 1.146-2.786 1.719-4.687 1.719-2.604 0-4.505-.938-5.703-2.813-.547-.807-.977-1.797-1.289-2.969a14.466 14.466 0 0 1-.469-3.672c0-2.734.703-5.234 2.109-7.5s3.503-4.036 6.289-5.313l.742 1.445zm-16.484 0c-1.536.651-2.878 1.641-4.023 2.969s-1.836 2.682-2.07 4.063c-.13.729-.195 1.354-.195 1.875 0 .599.065 1.094.195 1.484 1.224-1.276 2.773-1.914 4.648-1.914s3.398.547 4.57 1.641c1.172 1.094 1.758 2.604 1.758 4.531 0 1.823-.625 3.307-1.875 4.453-1.224 1.146-2.786 1.719-4.688 1.719-2.604 0-4.505-.938-5.703-2.813-.547-.807-.977-1.797-1.289-2.969a14.466 14.466 0 0 1-.469-3.672c0-2.734.703-5.234 2.109-7.5s3.503-4.036 6.289-5.313l.742 1.445z" style="fill:var(--color1, #1c2752)"/></symbol><symbol id="icon-facebook" viewBox="0 0 32 32"><path fill="#1c2752" d="M31.183 16.854c0-7.983-6.722-14.456-15.012-14.456S1.159 8.871 1.159 16.854c0 7.215 5.489 13.195 12.666 14.281V21.034h-3.813v-4.18h3.813v-3.185c0-3.622 2.242-5.625 5.67-5.625 1.643 0 3.361.283 3.361.283v3.558h-1.894c-1.864 0-2.447 1.114-2.447 2.259v2.71h4.163l-.665 4.18h-3.497v10.102c7.177-1.085 12.666-7.065 12.666-14.282z" style="fill:var(--color1, #1c2752)"/></symbol><symbol id="icon-helmet" viewBox="0 0 32 32"><path d="M26.553 19.677h2.988V17.1h-8.639c-.157 2.674-2.319 4.795-4.962 4.795s-4.805-2.121-4.962-4.795H2.899v2.577h2.467c.132.53.305 1.049.512 1.56.236.575.515 1.124.839 1.644l-2.159 2.218 3.4 3.494 2.162-2.222a10.69 10.69 0 0 0 3.486 1.472v3.09h4.814v-3.116a10.86 10.86 0 0 0 1.798-.597 10.54 10.54 0 0 0 1.684-.917l2.124 2.183 3.403-3.497-2.159-2.218a11.276 11.276 0 0 0 1.282-3.094zM25.269 5.889v5.203c0 .353-.281.64-.627.64h-.444a.633.633 0 0 1-.627-.64V4.536a13.083 13.083 0 0 0-4.279-1.899v9.027a.633.633 0 0 1-.627.639h-4.9a.633.633 0 0 1-.627-.639V2.637a13.315 13.315 0 0 0-4.26 1.899v6.556c0 .353-.281.64-.627.64h-.444a.633.633 0 0 1-.627-.64V5.889a13.646 13.646 0 0 0-4.279 9.953h26.642a13.587 13.587 0 0 0-4.273-9.953z" style="fill:var(--color3, #ffb342)"/><path fill="#ffb342" d="M18.037 10.588c0 .298-.21.539-.475.539h-2.684c-.258 0-.474-.241-.474-.538V1.605c0-.298.21-.538.474-.538h2.684c.258 0 .475.241.475.538v8.984z" style="fill:var(--color3, #ffb342)"/></symbol><symbol id="icon-instagram" viewBox="0 0 32 32"><path fill="#1c2752" d="M22.108 3.966c1.657.005 3.246.641 4.418 1.77s1.833 2.658 1.837 4.254v12.046c-.005 1.596-.666 3.126-1.837 4.254s-2.76 1.765-4.418 1.769H9.599c-1.657-.005-3.246-.641-4.418-1.769s-1.833-2.658-1.838-4.254V9.99c.005-1.596.666-3.125 1.838-4.254s2.76-1.765 4.418-1.77h12.509zm0-2.409H9.599C4.783 1.557.842 5.352.842 9.99v12.046c0 4.638 3.941 8.433 8.757 8.433h12.509c4.816 0 8.757-3.795 8.757-8.433V9.99c0-4.638-3.941-8.433-8.757-8.433z" style="fill:var(--color1, #1c2752)"/><path fill="#1c2752" d="M23.985 9.99c-.371 0-.734-.106-1.043-.305s-.549-.481-.691-.811c-.142-.33-.179-.694-.107-1.044s.251-.672.514-.925c.262-.253.597-.425.961-.495s.741-.034 1.084.103c.343.137.636.368.842.666a1.762 1.762 0 0 1-.233 2.283 1.889 1.889 0 0 1-1.328.528zm-8.131 1.204c.99 0 1.957.283 2.78.812s1.464 1.282 1.843 2.163c.379.88.478 1.849.285 2.784s-.67 1.793-1.37 2.467c-.7.674-1.591 1.133-2.562 1.319s-1.977.09-2.891-.274c-.914-.365-1.696-.982-2.246-1.775s-.843-1.724-.843-2.677c.001-1.278.529-2.502 1.467-3.406s2.21-1.412 3.537-1.413zm0-2.409c-1.485 0-2.936.424-4.17 1.218s-2.196 1.923-2.764 3.244c-.568 1.321-.717 2.774-.427 4.176s1.004 2.69 2.054 3.701c1.05 1.011 2.387 1.699 3.843 1.978s2.965.136 4.337-.411c1.372-.547 2.544-1.473 3.369-2.662s1.265-2.586 1.265-4.015c0-1.917-.791-3.755-2.198-5.111s-3.317-2.117-5.307-2.117z" style="fill:var(--color1, #1c2752)"/></symbol><symbol id="icon-list" viewBox="0 0 32 32"><path fill="none" stroke="#ffb342" stroke-linecap="round" stroke-linejoin="round" stroke-width="2.37" d="M24.296 13.236v14.218c0 .406-.065.808-.192 1.183s-.312.716-.546 1.003c-.234.287-.512.515-.817.67s-.633.235-.964.235H6.666c-.668 0-1.309-.326-1.781-.905s-.738-1.366-.738-2.186V8.908c0-.82.265-1.606.738-2.186s1.113-.905 1.781-.905h10.545" style="stroke:var(--color3, #ffb342)"/><path fill="#ffb342" d="M28.774.418c-.095-.128-.21-.231-.338-.302s-.267-.111-.407-.115c-.141-.004-.281.027-.411.091s-.249.16-.349.282l-.802.979c-.097.119-.152.281-.152.45s.055.33.152.45l.735.9c.048.059.105.107.168.139s.131.049.199.049.136-.017.199-.049.12-.079.169-.139l.782-.954c.395-.484.432-1.273.055-1.78zm-3.928 2.923-11.7 14.333a.76.76 0 0 0-.15.313l-.541 1.978c-.013.054-.014.111-.003.165s.034.104.066.143c.032.04.073.068.117.081s.091.013.134-.003l1.611-.664a.575.575 0 0 0 .255-.184l11.68-14.36c.108-.134.169-.315.169-.503s-.061-.369-.169-.503l-.645-.795c-.109-.134-.258-.209-.412-.209s-.302.075-.412.209z" style="fill:var(--color3, #ffb342)"/></symbol><symbol id="icon-logo-dark" viewBox="0 0 161 32"><path fill="#1c2752" d="M38.005 24V7.55h7.583c1.804 0 3.197.381 4.177 1.143s1.47 1.804 1.47 3.127c0 .98-.296 1.812-.887 2.497-.576.684-1.369 1.143-2.38 1.377v-.373c1.182.202 2.092.653 2.73 1.353.653.684.98 1.579.98 2.683 0 1.462-.521 2.606-1.563 3.43-1.027.809-2.45 1.213-4.27 1.213h-7.84zm3.477-2.707h3.92c.902 0 1.594-.171 2.077-.513s.723-.887.723-1.633c0-.762-.241-1.307-.723-1.633-.482-.342-1.174-.513-2.077-.513h-3.92v4.293zm0-6.976h3.453c.949 0 1.649-.171 2.1-.513s.677-.856.677-1.54c0-.669-.226-1.174-.677-1.517s-1.151-.513-2.1-.513h-3.453v4.083zM54.018 24V6.827h3.523V24h-3.523zm10.697.257c-1.478 0-2.574-.404-3.29-1.213-.716-.824-1.073-2.069-1.073-3.733v-7.14h3.523v7.14c0 .747.148 1.299.443 1.657.311.358.786.537 1.423.537.7 0 1.275-.241 1.727-.723.467-.498.7-1.159.7-1.983v-6.627h3.523v11.83h-3.43v-2.263h.327c-.358.793-.871 1.416-1.54 1.867-.653.436-1.431.653-2.333.653zm15.83 0c-2.053 0-3.656-.552-4.807-1.657s-1.727-2.606-1.727-4.503c0-1.229.241-2.302.723-3.22a5.456 5.456 0 0 1 2.053-2.147c.887-.529 1.921-.793 3.103-.793 1.167 0 2.139.249 2.917.747.793.498 1.384 1.198 1.773 2.1.404.887.607 1.921.607 3.103v.817h-8.283v-1.75h5.717l-.397.327c0-.98-.203-1.719-.607-2.217-.389-.513-.957-.77-1.703-.77-.825 0-1.463.303-1.913.91-.436.607-.653 1.478-.653 2.613v.373c0 1.151.28 2.007.84 2.567.575.56 1.4.84 2.473.84.637 0 1.237-.078 1.797-.233a5.687 5.687 0 0 0 1.633-.793l.98 2.333a6.636 6.636 0 0 1-2.053 1.003 8.427 8.427 0 0 1-2.473.35zm15.068 0c-1.758 0-3.267-.35-4.527-1.05s-2.232-1.68-2.917-2.94c-.669-1.276-1.003-2.777-1.003-4.503s.335-3.22 1.003-4.48c.685-1.26 1.657-2.24 2.917-2.94s2.769-1.05 4.527-1.05c1.135 0 2.17.163 3.103.49.933.311 1.727.77 2.38 1.377l-1.143 2.87c-.715-.56-1.4-.957-2.053-1.19-.638-.233-1.361-.35-2.17-.35-1.54 0-2.722.459-3.547 1.377-.809.902-1.213 2.201-1.213 3.897s.405 3.002 1.213 3.92c.825.918 2.007 1.377 3.547 1.377.809 0 1.532-.117 2.17-.35.653-.233 1.338-.63 2.053-1.19l1.143 2.87c-.653.591-1.447 1.05-2.38 1.377s-1.968.49-3.103.49zm12.563 0c-1.26 0-2.357-.249-3.29-.747a5.486 5.486 0 0 1-2.147-2.147c-.497-.918-.747-2.014-.747-3.29 0-1.26.249-2.349.747-3.267a5.312 5.312 0 0 1 2.147-2.123c.933-.498 2.03-.747 3.29-.747s2.357.249 3.29.747a5.146 5.146 0 0 1 2.147 2.123c.513.918.77 2.007.77 3.267 0 1.276-.257 2.372-.77 3.29a5.279 5.279 0 0 1-2.147 2.147c-.933.498-2.03.747-3.29.747zm0-2.66c.809 0 1.447-.288 1.913-.863.483-.576.723-1.462.723-2.66s-.241-2.077-.723-2.637c-.467-.56-1.104-.84-1.913-.84s-1.454.28-1.937.84c-.467.56-.7 1.439-.7 2.637s.233 2.084.7 2.66c.483.576 1.128.863 1.937.863zm25.885 2.66c-1.027 0-1.929-.249-2.707-.747s-1.384-1.206-1.82-2.123c-.435-.918-.653-2.022-.653-3.313 0-1.276.218-2.372.653-3.29s1.043-1.618 1.82-2.1c.778-.498 1.68-.747 2.707-.747.949 0 1.797.233 2.543.7.763.451 1.26 1.066 1.493 1.843h-.257l.28-2.31h3.383c-.047.513-.093 1.034-.14 1.563a25.162 25.162 0 0 0-.047 1.517V24h-3.5l-.023-2.217h.28c-.249.747-.747 1.346-1.493 1.797s-1.587.677-2.52.677zm1.073-2.66c.809 0 1.463-.288 1.96-.863s.747-1.462.747-2.66-.249-2.077-.747-2.637c-.497-.56-1.151-.84-1.96-.84s-1.462.28-1.96.84c-.497.56-.747 1.439-.747 2.637s.241 2.084.723 2.66c.498.576 1.159.863 1.983.863zm9.05 2.403v-8.703c0-.513-.016-1.034-.047-1.563a17.407 17.407 0 0 0-.117-1.563h3.383l.397 3.453h-.537c.155-.84.404-1.532.747-2.077.357-.544.793-.949 1.307-1.213.529-.264 1.127-.397 1.797-.397.295 0 .529.016.7.047.171.016.342.054.513.117l-.023 3.103a3.33 3.33 0 0 0-.84-.257 4.11 4.11 0 0 0-.84-.07c-.653 0-1.198.124-1.633.373-.42.249-.739.614-.957 1.097-.203.482-.303 1.066-.303 1.75V24h-3.547z" style="fill:var(--color1, #1c2752)"/><path fill="#ffb342" d="M116.658 24V6.827h3.523V24h-3.523zm6.403 0V6.827h3.523V24h-3.523z" style="fill:var(--color3, #ffb342)"/><path fill="#1c2752" d="M26.043 20.065h3.29v-2.732h-9.511c-.173 2.835-2.553 5.084-5.463 5.084s-5.29-2.249-5.463-5.084H.001v2.732h2.716c.145.561.336 1.113.564 1.654.26.609.567 1.191.924 1.743l-2.377 2.352 3.744 3.704 2.38-2.355a12.063 12.063 0 0 0 3.837 1.561V32h5.301v-3.304a12.282 12.282 0 0 0 1.979-.633c.651-.27 1.27-.596 1.855-.972l2.339 2.314 3.747-3.708-2.377-2.352a11.72 11.72 0 0 0 1.412-3.28z" style="fill:var(--color1, #1c2752)"/><path fill="#ffb342" d="M24.629 5.447v5.517a.685.685 0 0 1-.691.678h-.489a.685.685 0 0 1-.691-.678V4.013A14.69 14.69 0 0 0 18.047 2v9.571a.685.685 0 0 1-.691.678h-5.395a.685.685 0 0 1-.691-.678V2a14.962 14.962 0 0 0-4.69 2.013v6.951a.685.685 0 0 1-.691.678H5.4a.685.685 0 0 1-.691-.678V5.447C1.817 8.075-.002 11.825-.002 16h29.333c.007-4.175-1.805-7.925-4.704-10.553z" style="fill:var(--color3, #ffb342)"/><path fill="#ffb342" d="M16.667 10.429c0 .316-.231.571-.522.571H13.19c-.284 0-.522-.255-.522-.571V.904c0-.316.231-.571.522-.571h2.955c.284 0 .522.255.522.571v9.525z" style="fill:var(--color3, #ffb342)"/></symbol><symbol id="icon-logo-light" viewBox="0 0 192 32"><path fill="#fff" d="M38.005 23.667V7.217h7.583c1.804 0 3.197.381 4.177 1.143s1.47 1.804 1.47 3.127c0 .98-.296 1.812-.887 2.497-.576.684-1.369 1.143-2.38 1.377v-.373c1.182.202 2.092.653 2.73 1.353.653.684.98 1.579.98 2.683 0 1.462-.521 2.606-1.563 3.43-1.027.809-2.45 1.213-4.27 1.213h-7.84zm3.476-2.707h3.92c.902 0 1.594-.171 2.077-.513s.723-.887.723-1.633c0-.762-.241-1.307-.723-1.633-.482-.342-1.174-.513-2.077-.513h-3.92v4.293zm0-6.977h3.453c.949 0 1.649-.171 2.1-.513s.677-.856.677-1.54c0-.669-.226-1.174-.677-1.517s-1.151-.513-2.1-.513h-3.453v4.083zm12.537 9.684V6.494h3.523v17.173h-3.523zm10.697.256c-1.478 0-2.574-.404-3.29-1.213-.716-.824-1.073-2.069-1.073-3.733v-7.14h3.523v7.14c0 .747.148 1.299.443 1.657.311.358.786.537 1.423.537.7 0 1.275-.241 1.727-.723.467-.498.7-1.159.7-1.983v-6.627h3.523v11.83h-3.43v-2.263h.327c-.358.793-.871 1.416-1.54 1.867-.653.436-1.431.653-2.333.653zm15.83 0c-2.053 0-3.656-.552-4.807-1.657s-1.727-2.606-1.727-4.503c0-1.229.241-2.302.723-3.22a5.456 5.456 0 0 1 2.053-2.147c.887-.529 1.921-.793 3.103-.793 1.167 0 2.139.249 2.917.747.793.498 1.384 1.198 1.773 2.1.404.887.607 1.921.607 3.103v.817h-8.283v-1.75h5.717l-.397.327c0-.98-.203-1.719-.607-2.217-.389-.513-.957-.77-1.703-.77-.825 0-1.463.303-1.913.91-.436.607-.653 1.478-.653 2.613v.373c0 1.151.28 2.007.84 2.567.575.56 1.4.84 2.473.84.637 0 1.237-.078 1.797-.233a5.687 5.687 0 0 0 1.633-.793l.98 2.333a6.636 6.636 0 0 1-2.053 1.003 8.427 8.427 0 0 1-2.473.35zm15.068 0c-1.758 0-3.267-.35-4.527-1.05s-2.233-1.68-2.917-2.94c-.669-1.276-1.003-2.777-1.003-4.503s.334-3.22 1.003-4.48c.684-1.26 1.657-2.24 2.917-2.94s2.769-1.05 4.527-1.05c1.135 0 2.17.163 3.103.49.933.311 1.727.77 2.38 1.377l-1.143 2.87c-.716-.56-1.4-.957-2.053-1.19-.638-.233-1.361-.35-2.17-.35-1.54 0-2.723.459-3.547 1.377-.809.902-1.213 2.201-1.213 3.897s.404 3.002 1.213 3.92c.824.918 2.007 1.377 3.547 1.377.809 0 1.532-.117 2.17-.35.653-.233 1.337-.63 2.053-1.19l1.143 2.87c-.653.591-1.447 1.05-2.38 1.377s-1.968.49-3.103.49zm12.563 0c-1.26 0-2.357-.249-3.29-.747a5.486 5.486 0 0 1-2.147-2.147c-.497-.918-.747-2.014-.747-3.29 0-1.26.249-2.349.747-3.267a5.312 5.312 0 0 1 2.147-2.123c.933-.498 2.03-.747 3.29-.747s2.357.249 3.29.747a5.146 5.146 0 0 1 2.147 2.123c.513.918.77 2.007.77 3.267 0 1.276-.257 2.372-.77 3.29a5.279 5.279 0 0 1-2.147 2.147c-.933.498-2.03.747-3.29.747zm0-2.66c.809 0 1.447-.288 1.913-.863.483-.576.723-1.462.723-2.66s-.241-2.077-.723-2.637c-.467-.56-1.104-.84-1.913-.84s-1.454.28-1.937.84c-.467.56-.7 1.439-.7 2.637s.233 2.084.7 2.66c.483.576 1.128.863 1.937.863zm25.885 2.66c-1.027 0-1.929-.249-2.707-.747s-1.384-1.206-1.82-2.123c-.435-.918-.653-2.022-.653-3.313 0-1.276.218-2.372.653-3.29s1.043-1.618 1.82-2.1c.778-.498 1.68-.747 2.707-.747.949 0 1.797.233 2.543.7.763.451 1.26 1.066 1.493 1.843h-.257l.28-2.31h3.383c-.047.513-.093 1.034-.14 1.563a25.162 25.162 0 0 0-.047 1.517v8.75h-3.5l-.023-2.217h.28c-.249.747-.747 1.346-1.493 1.797s-1.587.677-2.52.677zm1.073-2.66c.809 0 1.463-.288 1.96-.863s.747-1.462.747-2.66-.249-2.077-.747-2.637c-.497-.56-1.151-.84-1.96-.84s-1.462.28-1.96.84c-.497.56-.747 1.439-.747 2.637s.241 2.084.723 2.66c.498.576 1.159.863 1.983.863zm9.05 2.404v-8.703c0-.513-.016-1.034-.047-1.563a17.407 17.407 0 0 0-.117-1.563h3.383l.397 3.453h-.537c.155-.84.404-1.532.747-2.077.357-.544.793-.949 1.307-1.213.529-.264 1.127-.397 1.797-.397.295 0 .529.016.7.047.171.016.342.054.513.117l-.023 3.103a3.33 3.33 0 0 0-.84-.257 4.11 4.11 0 0 0-.84-.07c-.653 0-1.198.124-1.633.373-.42.249-.739.614-.957 1.097-.203.482-.303 1.066-.303 1.75v5.903h-3.547z" style="fill:var(--color4, #fff)"/><path fill="#ffb342" d="M116.658 23.667V6.494h3.523v17.173h-3.523zm6.403 0V6.494h3.523v17.173h-3.523z" style="fill:var(--color3, #ffb342)"/><path fill="#fff" d="M26.043 19.732h3.29V17h-9.511c-.173 2.835-2.553 5.084-5.463 5.084S9.069 19.835 8.896 17H.001v2.732h2.716c.145.561.336 1.113.564 1.654.26.609.567 1.191.924 1.743l-2.377 2.352 3.744 3.704 2.38-2.355a12.063 12.063 0 0 0 3.837 1.561v3.276h5.301v-3.304a12.282 12.282 0 0 0 1.979-.633c.651-.27 1.27-.596 1.855-.972l2.339 2.314 3.747-3.708-2.377-2.352a11.72 11.72 0 0 0 1.412-3.28z" style="fill:var(--color4, #fff)"/><path fill="#ffb342" d="M24.629 5.114v5.517a.685.685 0 0 1-.691.678h-.489a.685.685 0 0 1-.691-.678V3.68a14.69 14.69 0 0 0-4.711-2.013v9.571a.685.685 0 0 1-.691.678h-5.395a.685.685 0 0 1-.691-.678V1.667A14.962 14.962 0 0 0 6.58 3.68v6.951a.685.685 0 0 1-.691.678H5.4a.685.685 0 0 1-.691-.678V5.114C1.817 7.742-.002 11.492-.002 15.667h29.333c.007-4.175-1.805-7.925-4.704-10.553z" style="fill:var(--color3, #ffb342)"/><path fill="#ffb342" d="M16.667 10.096c0 .316-.231.571-.522.571H13.19c-.284 0-.522-.255-.522-.571V.571c0-.316.231-.571.522-.571h2.955c.284 0 .522.255.522.571v9.525z" style="fill:var(--color3, #ffb342)"/></symbol><symbol id="icon-mail" viewBox="0 0 32 32"><path fill="none" stroke="#1c2752" stroke-linecap="round" stroke-linejoin="round" stroke-width="2.286" d="M28 4.571H4a2.857 2.857 0 0 0-2.857 2.857v17.143A2.857 2.857 0 0 0 4 27.428h24a2.857 2.857 0 0 0 2.857-2.857V7.428A2.857 2.857 0 0 0 28 4.571z" style="stroke:var(--color1, #1c2752)"/><path fill="none" stroke="#1c2752" stroke-linecap="round" stroke-linejoin="round" stroke-width="2.286" d="m5.714 9.143 10.286 8 10.286-8" style="stroke:var(--color1, #1c2752)"/></symbol><symbol id="icon-person" viewBox="0 0 32 32"><path fill="#1c2752" d="M21.306 2.327C19.959.826 18.077 0 16 0c-2.088 0-3.976.821-5.317 2.313-1.355 1.508-2.016 3.557-1.861 5.77C9.129 12.449 12.349 16 16 16s6.865-3.551 7.177-7.916c.157-2.193-.508-4.238-1.871-5.757zM28.184 32H3.815c-.319.004-.635-.065-.925-.202s-.546-.34-.751-.593c-.45-.555-.631-1.313-.497-2.079.584-3.344 2.408-6.154 5.274-8.126 2.546-1.751 5.772-2.714 9.083-2.714s6.537.964 9.083 2.714c2.866 1.972 4.689 4.781 5.274 8.125.134.766-.047 1.524-.497 2.079-.204.253-.461.455-.751.593s-.606.207-.925.203z" style="fill:var(--color1, #1c2752)"/></symbol><symbol id="icon-pinterest" viewBox="0 0 32 32"><path fill="#1c2752" d="M15.824 0C7.401 0 .571 6.827.571 15.246c0 6.242 3.759 11.605 9.132 13.967-.041-1.062-.007-2.342.266-3.499l1.961-8.311s-.49-.973-.49-2.41c0-2.26 1.307-3.948 2.942-3.948 1.389 0 2.056 1.041 2.056 2.287 0 1.395-.892 3.478-1.348 5.411-.381 1.62.81 2.934 2.411 2.934 2.887 0 4.835-3.709 4.835-8.106 0-3.342-2.254-5.84-6.346-5.84-4.624 0-7.511 3.451-7.511 7.303 0 1.327.395 2.266 1.008 2.988.279.333.32.47.218.851-.075.279-.238.953-.313 1.225-.102.388-.415.524-.763.381-2.131-.871-3.126-3.199-3.126-5.826 0-4.329 3.657-9.522 10.902-9.522 5.822 0 9.656 4.213 9.656 8.733 0 5.983-3.33 10.448-8.233 10.448-1.648 0-3.194-.892-3.725-1.899 0 0-.885 3.512-1.076 4.193-.32 1.178-.953 2.348-1.532 3.267 1.404.414 2.86.625 4.324.626 8.423 0 15.253-6.827 15.253-15.246S24.249 0 15.826 0z" style="fill:var(--color1, #1c2752)"/></symbol><symbol id="icon-place" viewBox="0 0 32 32"><path fill="none" stroke="#1c2752" stroke-linecap="round" stroke-linejoin="round" stroke-width="2" d="M16 1C10.479 1 6 5.427 6 10.88c0 6.274 6.667 16.217 9.115 19.652.102.145.235.263.389.344a1.067 1.067 0 0 0 1.383-.344c2.448-3.433 9.115-13.372 9.115-19.652 0-5.453-4.479-9.88-10-9.88z" style="stroke:var(--color1, #1c2752)"/><path fill="none" stroke="#1c2752" stroke-linecap="round" stroke-linejoin="round" stroke-width="2" d="M16 16a4 4 0 1 0 0-8 4 4 0 0 0 0 8z" style="stroke:var(--color1, #1c2752)"/></symbol><symbol id="icon-tel" viewBox="0 0 32 32"><path fill="none" stroke="#1c2752" stroke-miterlimit="10" stroke-width="2.462" d="M29.847 24.377c-1.128-1.136-3.859-2.794-5.183-3.462-1.726-.869-1.868-.94-3.224.067-.905.672-1.506 1.273-2.565 1.047s-3.359-1.499-5.374-3.507c-2.014-2.008-3.361-4.375-3.588-5.43s.384-1.649 1.05-2.556c.939-1.278.868-1.491.065-3.216-.626-1.342-2.332-4.047-3.472-5.169-1.22-1.205-1.22-.992-2.006-.665-.64.269-1.254.597-1.834.978-1.136.755-1.767 1.382-2.208 2.324s-.639 3.151 1.638 7.288c2.277 4.137 3.875 6.252 7.182 9.549s5.85 5.07 9.567 7.155c4.599 2.575 6.362 2.073 7.307 1.633s1.575-1.065 2.331-2.201c.382-.579.71-1.192.98-1.832.327-.783.54-.783-.667-2.002z" style="stroke:var(--color1, #1c2752)"/></symbol><symbol id="icon-twitter" viewBox="0 0 32 32"><path fill="#1c2752" d="M31.162 6.655a12.852 12.852 0 0 1-3.6.974 6.213 6.213 0 0 0 2.759-3.412 12.586 12.586 0 0 1-3.983 1.496 6.316 6.316 0 0 0-4.578-1.955c-3.465 0-6.268 2.763-6.268 6.169-.002.474.052.946.162 1.407A17.862 17.862 0 0 1 2.73 4.885a6.086 6.086 0 0 0-.852 3.101c0 2.139 1.116 4.03 2.801 5.138a6.219 6.219 0 0 1-2.851-.77v.076c0 2.992 2.165 5.482 5.03 6.048a6.395 6.395 0 0 1-1.651.216 5.97 5.97 0 0 1-1.178-.115c.796 2.451 3.114 4.234 5.86 4.285a12.704 12.704 0 0 1-7.788 2.642c-.5-.001-1-.03-1.496-.089a17.736 17.736 0 0 0 9.597 2.788c11.546 0 17.854-9.403 17.854-17.559 0-.267-.007-.535-.02-.796a12.636 12.636 0 0 0 3.128-3.196z" style="fill:var(--color1, #1c2752)"/></symbol><symbol id="icon-wheel" viewBox="0 0 32 32"><path d="M32 15.544c-.01-.187-.088-.365-.22-.502s-.309-.223-.5-.245l-1.972-.311c-.089-.014-.17-.056-.233-.119s-.102-.144-.113-.231c-.038-.236-.077-.482-.131-.715a.409.409 0 0 1 .202-.439l1.752-.95c.174-.086.309-.232.38-.41s.072-.374.004-.553l-.304-.818c-.067-.179-.199-.328-.371-.418s-.372-.115-.562-.07l-1.965.375a.424.424 0 0 1-.448-.211 13.784 13.784 0 0 0-.369-.632.415.415 0 0 1 .034-.488l1.308-1.474a.766.766 0 0 0 .03-1.033l-.571-.669a.8.8 0 0 0-1.045-.15l-1.721 1.008a.424.424 0 0 1-.492-.047 20.26 20.26 0 0 0-.567-.465.403.403 0 0 1-.132-.466l.712-1.832c.078-.175.087-.371.026-.552s-.188-.334-.357-.429l-.776-.442c-.169-.095-.368-.126-.559-.087s-.36.146-.476.299L21.306 4.01a.363.363 0 0 1-.431.129 14.741 14.741 0 0 0-.752-.278c-.085-.027-.158-.08-.21-.15s-.079-.156-.078-.242l.03-1.957c.011-.191-.05-.379-.172-.53s-.295-.252-.488-.287l-.881-.15c-.192-.032-.389.004-.556.103s-.29.254-.348.435l-.654 1.862c-.03.083-.086.154-.16.203s-.163.074-.252.071h-.75c-.089.002-.176-.024-.25-.073s-.129-.12-.158-.202l-.651-1.852c-.057-.183-.181-.339-.347-.439s-.365-.138-.558-.105l-.882.15c-.192.034-.364.135-.485.284s-.183.336-.173.526l.031 1.964c.001.088-.028.174-.082.245s-.129.123-.215.149c-.176.067-.559.209-.732.273-.154.054-.322-.005-.457-.158L9.394 2.48a.808.808 0 0 0-1.035-.217l-.774.438c-.171.096-.299.25-.361.432s-.051.381.028.557l.712 1.827a.409.409 0 0 1-.13.467c-.187.15-.378.3-.569.467a.425.425 0 0 1-.488.048L5.076 5.471a.813.813 0 0 0-1.047.15l-.568.667a.764.764 0 0 0 .028 1.032l1.314 1.473a.4.4 0 0 1 .034.484 8.532 8.532 0 0 0-.371.634.423.423 0 0 1-.451.211l-1.962-.37c-.19-.045-.39-.02-.562.07s-.304.239-.371.418l-.308.817a.767.767 0 0 0 .384.965l1.752.95c.079.042.141.109.178.189s.046.17.026.255l-.018.095a25 25 0 0 0-.112.619c-.012.086-.052.166-.114.228s-.142.105-.229.12l-1.976.312c-.193.023-.371.114-.501.256s-.202.325-.203.515v.869c-.001.191.07.375.2.517s.31.232.504.253l1.975.311c.089.014.17.056.233.119s.102.144.113.232c.038.237.077.482.131.715a.409.409 0 0 1-.202.439l-1.752.951c-.174.087-.309.233-.38.41s-.072.374-.004.553l.308.818c.067.179.199.328.371.418s.372.115.562.071l1.965-.372a.427.427 0 0 1 .448.211c.115.21.239.423.369.632a.416.416 0 0 1-.033.488L3.499 24.67c-.134.138-.212.319-.22.51s.057.377.181.524l.57.669a.805.805 0 0 0 1.045.15l1.721-1.008a.424.424 0 0 1 .492.047c.191.163.385.32.567.465a.409.409 0 0 1 .133.466l-.713 1.832c-.078.175-.087.371-.026.552s.188.334.357.429l.778.438c.169.095.368.126.559.087s.36-.145.476-.299l1.273-1.528c.108-.13.277-.188.402-.138.268.108.447.169.765.273.085.027.158.08.21.15s.079.156.078.242l-.031 1.956c-.01.191.051.379.172.529s.294.252.487.287l.881.15c.192.033.389-.004.556-.103s.29-.254.348-.435l.654-1.859c.03-.083.086-.154.16-.203s.163-.074.252-.071h.75c.089-.002.176.024.25.073s.129.12.158.202l.652 1.852c.05.161.152.302.291.402a.826.826 0 0 0 .615.143l.882-.15c.192-.034.364-.135.485-.284s.183-.336.173-.526l-.031-1.964c-.001-.087.027-.171.079-.241s.125-.122.21-.149c.295-.097.503-.175.685-.244l.046-.017c.238-.08.354.017.421.098l1.288 1.549a.808.808 0 0 0 1.034.212l.775-.438c.169-.095.297-.249.358-.43s.052-.378-.027-.553l-.711-1.827c-.031-.081-.036-.17-.012-.254s.073-.159.142-.213c.187-.15.378-.3.569-.467a.42.42 0 0 1 .491-.046l1.722 1.006a.813.813 0 0 0 1.047-.15l.569-.668a.764.764 0 0 0-.028-1.032l-1.312-1.477a.4.4 0 0 1-.034-.484c.132-.203.257-.418.371-.634.043-.077.109-.139.19-.177s.172-.05.26-.035l1.96.373c.19.045.39.02.562-.07s.304-.239.371-.418l.304-.817c.068-.179.066-.376-.004-.553s-.206-.324-.38-.411l-1.754-.951a.406.406 0 0 1-.2-.443l.018-.095a25 25 0 0 0 .112-.619c.012-.086.052-.166.114-.228s.142-.105.229-.12l1.976-.311c.194-.023.372-.114.502-.256s.202-.325.204-.516v-.879zm-21.727 7.057c-.096.163-.23.301-.391.403a1.231 1.231 0 0 1-1.1.112 1.203 1.203 0 0 1-.468-.316c-1.733-1.87-2.69-4.303-2.684-6.824s.974-4.95 2.716-6.812c.129-.14.29-.248.47-.315a1.249 1.249 0 0 1 1.101.117c.161.103.295.242.39.406l3.511 6.032a1.174 1.174 0 0 1 0 1.182l-3.546 6.015zM16 26.143c-.732 0-1.462-.075-2.178-.225-.186-.041-.36-.124-.508-.242a1.183 1.183 0 0 1-.441-.983c.011-.186.066-.367.162-.528l3.538-6.006a1.222 1.222 0 0 1 1.054-.595h7.088c.191 0 .379.043.55.127s.318.206.431.356a1.153 1.153 0 0 1 .181 1.058c-1.345 4.078-5.262 7.038-9.877 7.038zm.578-12.304-3.501-6.016a1.168 1.168 0 0 1 .285-1.509c.148-.118.322-.2.508-.24.7-.144 1.414-.216 2.13-.216 4.615 0 8.532 2.961 9.875 7.041a1.165 1.165 0 0 1-.181 1.058 1.23 1.23 0 0 1-.981.483h-7.077c-.215 0-.427-.055-.612-.16s-.34-.257-.446-.44z" style="fill:var(--color3, #ffb342)"/></symbol></defs></svg>